<svg width="120" height="120" viewBox="0 0 120 120" fill="none" xmlns="http://www.w3.org/2000/svg">
<path fill-rule="evenodd" clip-rule="evenodd" d="M109.4 60C109.4 87.3 87.3 109.4 60 109.4C52.8564 109.4 47.5212 106.718 44.8531 103.466C42.1849 100.213 41.4342 94.891 42.3528 87.2031L58.2531 84.0491C72.7798 81.388 80.7844 73.3059 83.6502 58.8173C84.0008 56.7891 84.4012 54.7609 84.7807 52.8384C84.936 52.0515 85.0878 51.2823 85.2313 50.538C85.6644 48.1862 86.0824 45.9513 86.4658 43.9015C86.8697 41.7419 87.2352 39.7879 87.5394 38.1192C89.1661 28.6998 87.844 21.7453 84.1852 16.9073C99.2388 25.3681 109.4 41.4886 109.4 60ZM60 10.6C32.7 10.6 10.6 32.7 10.6 60C10.6 78.5114 20.7612 94.6319 35.8148 103.093C32.156 98.2546 30.8339 91.3002 32.4606 81.8808C32.8101 79.9637 33.2282 77.7042 33.6948 75.183C34.0198 73.4267 34.3683 71.5435 34.7335 69.5605C34.877 68.8163 35.0289 68.0471 35.1842 67.2602C35.5637 65.3377 35.9641 63.3095 36.3147 61.2813C39.0817 46.6941 47.0862 38.612 61.613 35.9508L77.6472 32.7969C78.5658 25.109 77.8151 19.7867 75.1469 16.5341C72.4788 13.2816 67.1436 10.6 60 10.6ZM120 60C120 93.1 93.1 120 60 120C26.9 120 0 93.1 0 60C0 26.9 26.9 0 60 0C93.1 0 120 26.9 120 60ZM75.7445 43.8358L63.6882 46.2013C53.4108 48.1726 48.6674 52.9035 46.6909 63.154C46.2314 65.4456 45.8312 67.6188 45.4444 69.7194C45.3321 70.3293 45.221 70.933 45.1098 71.5318C44.8133 73.1088 44.5168 74.6858 44.2204 76.1642L56.1778 73.7987C66.4552 71.8275 71.2981 67.0965 73.2746 56.846C73.7086 54.6815 74.109 52.5115 74.5094 50.3414C74.9099 48.1711 75.3103 46.0008 75.7445 43.8358Z" fill="white"/>
</svg>
